<mxfile host="Electron" agent="Mozilla/5.0 (Windows NT 10.0; Win64; x64) AppleWebKit/537.36 (KHTML, like Gecko) draw.io/24.7.17 Chrome/128.0.6613.36 Electron/32.0.1 Safari/537.36" version="24.7.17">
  <diagram id="C5RBs43oDa-KdzZeNtuy" name="Page-1">
    <mxGraphModel dx="1501" dy="713" grid="1" gridSize="10" guides="1" tooltips="1" connect="1" arrows="1" fold="1" page="1" pageScale="1" pageWidth="827" pageHeight="1169" math="0" shadow="0">
      <root>
        <mxCell id="WIyWlLk6GJQsqaUBKTNV-0" />
        <mxCell id="WIyWlLk6GJQsqaUBKTNV-1" parent="WIyWlLk6GJQsqaUBKTNV-0" />
        <mxCell id="0P53CiuFxA8xap55-LlZ-18" value="" style="rounded=0;whiteSpace=wrap;html=1;" parent="WIyWlLk6GJQsqaUBKTNV-1" vertex="1">
          <mxGeometry x="195" y="130" width="1850" height="1160" as="geometry" />
        </mxCell>
        <mxCell id="K8rYbUxxIG4jiyy7o4ug-32" value="Utilisateur" style="swimlane;fontStyle=0;childLayout=stackLayout;horizontal=1;startSize=30;horizontalStack=0;resizeParent=1;resizeParentMax=0;resizeLast=0;collapsible=1;marginBottom=0;whiteSpace=wrap;html=1;" parent="WIyWlLk6GJQsqaUBKTNV-1" vertex="1">
          <mxGeometry x="580" y="550" width="210" height="510" as="geometry" />
        </mxCell>
        <mxCell id="K8rYbUxxIG4jiyy7o4ug-44" value="Pseudo : String" style="text;strokeColor=none;fillColor=none;align=left;verticalAlign=middle;spacingLeft=4;spacingRight=4;overflow=hidden;points=[[0,0.5],[1,0.5]];portConstraint=eastwest;rotatable=0;whiteSpace=wrap;html=1;" parent="K8rYbUxxIG4jiyy7o4ug-32" vertex="1">
          <mxGeometry y="30" width="210" height="30" as="geometry" />
        </mxCell>
        <mxCell id="K8rYbUxxIG4jiyy7o4ug-36" value="Nom : String" style="text;strokeColor=none;fillColor=none;align=left;verticalAlign=middle;spacingLeft=4;spacingRight=4;overflow=hidden;points=[[0,0.5],[1,0.5]];portConstraint=eastwest;rotatable=0;whiteSpace=wrap;html=1;" parent="K8rYbUxxIG4jiyy7o4ug-32" vertex="1">
          <mxGeometry y="60" width="210" height="30" as="geometry" />
        </mxCell>
        <mxCell id="K8rYbUxxIG4jiyy7o4ug-37" value="Prénom : String" style="text;strokeColor=none;fillColor=none;align=left;verticalAlign=middle;spacingLeft=4;spacingRight=4;overflow=hidden;points=[[0,0.5],[1,0.5]];portConstraint=eastwest;rotatable=0;whiteSpace=wrap;html=1;" parent="K8rYbUxxIG4jiyy7o4ug-32" vertex="1">
          <mxGeometry y="90" width="210" height="30" as="geometry" />
        </mxCell>
        <mxCell id="K8rYbUxxIG4jiyy7o4ug-38" value="Email : String" style="text;strokeColor=none;fillColor=none;align=left;verticalAlign=middle;spacingLeft=4;spacingRight=4;overflow=hidden;points=[[0,0.5],[1,0.5]];portConstraint=eastwest;rotatable=0;whiteSpace=wrap;html=1;" parent="K8rYbUxxIG4jiyy7o4ug-32" vertex="1">
          <mxGeometry y="120" width="210" height="30" as="geometry" />
        </mxCell>
        <mxCell id="K8rYbUxxIG4jiyy7o4ug-88" value="Age : int&amp;nbsp; (autocalc)" style="text;strokeColor=none;fillColor=none;align=left;verticalAlign=middle;spacingLeft=4;spacingRight=4;overflow=hidden;points=[[0,0.5],[1,0.5]];portConstraint=eastwest;rotatable=0;whiteSpace=wrap;html=1;" parent="K8rYbUxxIG4jiyy7o4ug-32" vertex="1">
          <mxGeometry y="150" width="210" height="30" as="geometry" />
        </mxCell>
        <mxCell id="K8rYbUxxIG4jiyy7o4ug-40" value="MDP(hash)&lt;span style=&quot;color: rgba(0, 0, 0, 0); font-family: monospace; font-size: 0px; text-wrap: nowrap;&quot;&gt;%3CmxGraphModel%3E%3Croot%3E%3CmxCell%20id%3D%220%22%2F%3E%3CmxCell%20id%3D%221%22%20parent%3D%220%22%2F%3E%3CmxCell%20id%3D%222%22%20value%3D%22Email%22%20style%3D%22text%3BstrokeColor%3Dnone%3BfillColor%3Dnone%3Balign%3Dleft%3BverticalAlign%3Dmiddle%3BspacingLeft%3D4%3BspacingRight%3D4%3Boverflow%3Dhidden%3Bpoints%3D%5B%5B0%2C0.5%5D%2C%5B1%2C0.5%5D%5D%3BportConstraint%3Deastwest%3Brotatable%3D0%3BwhiteSpace%3Dwrap%3Bhtml%3D1%3B%22%20vertex%3D%221%22%20parent%3D%221%22%3E%3CmxGeometry%20x%3D%22380%22%20y%3D%22250%22%20width%3D%22140%22%20height%3D%2230%22%20as%3D%22geometry%22%2F%3E%3C%2FmxCell%3E%3C%2Froot%3E%3C%2FmxGraphModel%3E&amp;nbsp;&lt;/span&gt;: String" style="text;strokeColor=none;fillColor=none;align=left;verticalAlign=middle;spacingLeft=4;spacingRight=4;overflow=hidden;points=[[0,0.5],[1,0.5]];portConstraint=eastwest;rotatable=0;whiteSpace=wrap;html=1;" parent="K8rYbUxxIG4jiyy7o4ug-32" vertex="1">
          <mxGeometry y="180" width="210" height="30" as="geometry" />
        </mxCell>
        <mxCell id="K8rYbUxxIG4jiyy7o4ug-41" value="Poids : Float&lt;span style=&quot;color: rgba(0, 0, 0, 0); font-family: monospace; font-size: 0px; text-wrap: nowrap;&quot;&gt;%3CmxGraphModel%3E%3Croot%3E%3CmxCell%20id%3D%220%22%2F%3E%3CmxCell%20id%3D%221%22%20parent%3D%220%22%2F%3E%3CmxCell%20id%3D%222%22%20value%3D%22MDP(hash)%26lt%3Bspan%20style%3D%26quot%3Bcolor%3A%20rgba(0%2C%200%2C%200%2C%200)%3B%20font-family%3A%20monospace%3B%20font-size%3A%200px%3B%20text-wrap%3A%20nowrap%3B%26quot%3B%26gt%3B%253CmxGraphModel%253E%253Croot%253E%253CmxCell%2520id%253D%25220%2522%252F%253E%253CmxCell%2520id%253D%25221%2522%2520parent%253D%25220%2522%252F%253E%253CmxCell%2520id%253D%25222%2522%2520value%253D%2522Email%2522%2520style%253D%2522text%253BstrokeColor%253Dnone%253BfillColor%253Dnone%253Balign%253Dleft%253BverticalAlign%253Dmiddle%253BspacingLeft%253D4%253BspacingRight%253D4%253Boverflow%253Dhidden%253Bpoints%253D%255B%255B0%252C0.5%255D%252C%255B1%252C0.5%255D%255D%253BportConstraint%253Deastwest%253Brotatable%253D0%253BwhiteSpace%253Dwrap%253Bhtml%253D1%253B%2522%2520vertex%253D%25221%2522%2520parent%253D%25221%2522%253E%253CmxGeometry%2520x%253D%2522380%2522%2520y%253D%2522250%2522%2520width%253D%2522140%2522%2520height%253D%252230%2522%2520as%253D%2522geometry%2522%252F%253E%253C%252FmxCell%253E%253C%252Froot%253E%253C%252FmxGraphModel%253E%26lt%3B%2Fspan%26gt%3B%22%20style%3D%22text%3BstrokeColor%3Dnone%3BfillColor%3Dnone%3Balign%3Dleft%3BverticalAlign%3Dmiddle%3BspacingLeft%3D4%3BspacingRight%3D4%3Boverflow%3Dhidden%3Bpoints%3D%5B%5B0%2C0.5%5D%2C%5B1%2C0.5%5D%5D%3BportConstraint%3Deastwest%3Brotatable%3D0%3BwhiteSpace%3Dwrap%3Bhtml%3D1%3B%22%20vertex%3D%221%22%20parent%3D%221%22%3E%3CmxGeometry%20x%3D%22380%22%20y%3D%22280%22%20width%3D%22140%22%20height%3D%2230%22%20as%3D%22geometry%22%2F%3E%3C%2FmxCell%3E%3C%2Froot%3E%3C%2FmxGraphModel%3E N : float&lt;/span&gt;" style="text;strokeColor=none;fillColor=none;align=left;verticalAlign=middle;spacingLeft=4;spacingRight=4;overflow=hidden;points=[[0,0.5],[1,0.5]];portConstraint=eastwest;rotatable=0;whiteSpace=wrap;html=1;" parent="K8rYbUxxIG4jiyy7o4ug-32" vertex="1">
          <mxGeometry y="210" width="210" height="30" as="geometry" />
        </mxCell>
        <mxCell id="K8rYbUxxIG4jiyy7o4ug-42" value="Taille : Float" style="text;strokeColor=none;fillColor=none;align=left;verticalAlign=middle;spacingLeft=4;spacingRight=4;overflow=hidden;points=[[0,0.5],[1,0.5]];portConstraint=eastwest;rotatable=0;whiteSpace=wrap;html=1;" parent="K8rYbUxxIG4jiyy7o4ug-32" vertex="1">
          <mxGeometry y="240" width="210" height="30" as="geometry" />
        </mxCell>
        <mxCell id="K8rYbUxxIG4jiyy7o4ug-43" value="IMC (autocalc) : Float" style="text;strokeColor=none;fillColor=none;align=left;verticalAlign=middle;spacingLeft=4;spacingRight=4;overflow=hidden;points=[[0,0.5],[1,0.5]];portConstraint=eastwest;rotatable=0;whiteSpace=wrap;html=1;" parent="K8rYbUxxIG4jiyy7o4ug-32" vertex="1">
          <mxGeometry y="270" width="210" height="30" as="geometry" />
        </mxCell>
        <mxCell id="UJ8hW6r6jQu2j_Ut7Npw-2" value="ObjectifPoids : Float" style="text;strokeColor=none;fillColor=none;align=left;verticalAlign=middle;spacingLeft=4;spacingRight=4;overflow=hidden;points=[[0,0.5],[1,0.5]];portConstraint=eastwest;rotatable=0;whiteSpace=wrap;html=1;" parent="K8rYbUxxIG4jiyy7o4ug-32" vertex="1">
          <mxGeometry y="300" width="210" height="30" as="geometry" />
        </mxCell>
        <mxCell id="UJ8hW6r6jQu2j_Ut7Npw-3" value="DateInscription : Date" style="text;strokeColor=none;fillColor=none;align=left;verticalAlign=middle;spacingLeft=4;spacingRight=4;overflow=hidden;points=[[0,0.5],[1,0.5]];portConstraint=eastwest;rotatable=0;whiteSpace=wrap;html=1;" parent="K8rYbUxxIG4jiyy7o4ug-32" vertex="1">
          <mxGeometry y="330" width="210" height="30" as="geometry" />
        </mxCell>
        <mxCell id="UJ8hW6r6jQu2j_Ut7Npw-4" value="DateObjectif : Date" style="text;strokeColor=none;fillColor=none;align=left;verticalAlign=middle;spacingLeft=4;spacingRight=4;overflow=hidden;points=[[0,0.5],[1,0.5]];portConstraint=eastwest;rotatable=0;whiteSpace=wrap;html=1;" parent="K8rYbUxxIG4jiyy7o4ug-32" vertex="1">
          <mxGeometry y="360" width="210" height="30" as="geometry" />
        </mxCell>
        <mxCell id="K8rYbUxxIG4jiyy7o4ug-33" value="Liste&amp;lt;Activité&amp;gt; : Activité" style="text;strokeColor=none;fillColor=none;align=left;verticalAlign=middle;spacingLeft=4;spacingRight=4;overflow=hidden;points=[[0,0.5],[1,0.5]];portConstraint=eastwest;rotatable=0;whiteSpace=wrap;html=1;" parent="K8rYbUxxIG4jiyy7o4ug-32" vertex="1">
          <mxGeometry y="390" width="210" height="30" as="geometry" />
        </mxCell>
        <mxCell id="0P53CiuFxA8xap55-LlZ-9" value="Liste&amp;lt;Agenda&amp;gt; : Agenda" style="text;strokeColor=none;fillColor=none;align=left;verticalAlign=middle;spacingLeft=4;spacingRight=4;overflow=hidden;points=[[0,0.5],[1,0.5]];portConstraint=eastwest;rotatable=0;whiteSpace=wrap;html=1;" parent="K8rYbUxxIG4jiyy7o4ug-32" vertex="1">
          <mxGeometry y="420" width="210" height="30" as="geometry" />
        </mxCell>
        <mxCell id="K8rYbUxxIG4jiyy7o4ug-64" value="Liste&amp;lt;Statistique&amp;gt; : Statistique" style="text;strokeColor=none;fillColor=none;align=left;verticalAlign=middle;spacingLeft=4;spacingRight=4;overflow=hidden;points=[[0,0.5],[1,0.5]];portConstraint=eastwest;rotatable=0;whiteSpace=wrap;html=1;" parent="K8rYbUxxIG4jiyy7o4ug-32" vertex="1">
          <mxGeometry y="450" width="210" height="30" as="geometry" />
        </mxCell>
        <mxCell id="K8rYbUxxIG4jiyy7o4ug-66" value="Liste&amp;lt;Tache&amp;gt; Tache" style="text;strokeColor=none;fillColor=none;align=left;verticalAlign=middle;spacingLeft=4;spacingRight=4;overflow=hidden;points=[[0,0.5],[1,0.5]];portConstraint=eastwest;rotatable=0;whiteSpace=wrap;html=1;" parent="K8rYbUxxIG4jiyy7o4ug-32" vertex="1">
          <mxGeometry y="480" width="210" height="30" as="geometry" />
        </mxCell>
        <mxCell id="K8rYbUxxIG4jiyy7o4ug-45" value="Activité" style="swimlane;fontStyle=0;childLayout=stackLayout;horizontal=1;startSize=30;horizontalStack=0;resizeParent=1;resizeParentMax=0;resizeLast=0;collapsible=1;marginBottom=0;whiteSpace=wrap;html=1;" parent="WIyWlLk6GJQsqaUBKTNV-1" vertex="1">
          <mxGeometry x="890" y="747" width="140" height="150" as="geometry" />
        </mxCell>
        <mxCell id="K8rYbUxxIG4jiyy7o4ug-79" value="Titre :&amp;nbsp;&lt;span style=&quot;background-color: initial;&quot;&gt;string&lt;/span&gt;" style="text;strokeColor=none;fillColor=none;align=left;verticalAlign=middle;spacingLeft=4;spacingRight=4;overflow=hidden;points=[[0,0.5],[1,0.5]];portConstraint=eastwest;rotatable=0;whiteSpace=wrap;html=1;" parent="K8rYbUxxIG4jiyy7o4ug-45" vertex="1">
          <mxGeometry y="30" width="140" height="30" as="geometry" />
        </mxCell>
        <mxCell id="K8rYbUxxIG4jiyy7o4ug-48" value="Duree : string" style="text;strokeColor=none;fillColor=none;align=left;verticalAlign=middle;spacingLeft=4;spacingRight=4;overflow=hidden;points=[[0,0.5],[1,0.5]];portConstraint=eastwest;rotatable=0;whiteSpace=wrap;html=1;" parent="K8rYbUxxIG4jiyy7o4ug-45" vertex="1">
          <mxGeometry y="60" width="140" height="30" as="geometry" />
        </mxCell>
        <mxCell id="K8rYbUxxIG4jiyy7o4ug-49" value="CaloriesBrulees : float" style="text;strokeColor=none;fillColor=none;align=left;verticalAlign=middle;spacingLeft=4;spacingRight=4;overflow=hidden;points=[[0,0.5],[1,0.5]];portConstraint=eastwest;rotatable=0;whiteSpace=wrap;html=1;" parent="K8rYbUxxIG4jiyy7o4ug-45" vertex="1">
          <mxGeometry y="90" width="140" height="30" as="geometry" />
        </mxCell>
        <mxCell id="K8rYbUxxIG4jiyy7o4ug-50" value="ImagePath&amp;nbsp; :string" style="text;strokeColor=none;fillColor=none;align=left;verticalAlign=middle;spacingLeft=4;spacingRight=4;overflow=hidden;points=[[0,0.5],[1,0.5]];portConstraint=eastwest;rotatable=0;whiteSpace=wrap;html=1;" parent="K8rYbUxxIG4jiyy7o4ug-45" vertex="1">
          <mxGeometry y="120" width="140" height="30" as="geometry" />
        </mxCell>
        <mxCell id="K8rYbUxxIG4jiyy7o4ug-57" value="" style="endArrow=classic;html=1;rounded=0;exitX=1;exitY=0.5;exitDx=0;exitDy=0;entryX=0.008;entryY=0.114;entryDx=0;entryDy=0;entryPerimeter=0;" parent="WIyWlLk6GJQsqaUBKTNV-1" source="K8rYbUxxIG4jiyy7o4ug-33" target="K8rYbUxxIG4jiyy7o4ug-45" edge="1">
          <mxGeometry width="50" height="50" relative="1" as="geometry">
            <mxPoint x="910" y="790" as="sourcePoint" />
            <mxPoint x="960" y="740" as="targetPoint" />
            <Array as="points">
              <mxPoint x="840" y="955" />
              <mxPoint x="840" y="764" />
            </Array>
          </mxGeometry>
        </mxCell>
        <mxCell id="K8rYbUxxIG4jiyy7o4ug-58" value="Statistique" style="swimlane;fontStyle=0;childLayout=stackLayout;horizontal=1;startSize=30;horizontalStack=0;resizeParent=1;resizeParentMax=0;resizeLast=0;collapsible=1;marginBottom=0;whiteSpace=wrap;html=1;" parent="WIyWlLk6GJQsqaUBKTNV-1" vertex="1">
          <mxGeometry x="1490" y="765" width="140" height="120" as="geometry" />
        </mxCell>
        <mxCell id="K8rYbUxxIG4jiyy7o4ug-59" value="Type(enum) : int&amp;nbsp;" style="text;strokeColor=none;fillColor=none;align=left;verticalAlign=middle;spacingLeft=4;spacingRight=4;overflow=hidden;points=[[0,0.5],[1,0.5]];portConstraint=eastwest;rotatable=0;whiteSpace=wrap;html=1;" parent="K8rYbUxxIG4jiyy7o4ug-58" vertex="1">
          <mxGeometry y="30" width="140" height="30" as="geometry" />
        </mxCell>
        <mxCell id="K8rYbUxxIG4jiyy7o4ug-60" value="Valeur : float" style="text;strokeColor=none;fillColor=none;align=left;verticalAlign=middle;spacingLeft=4;spacingRight=4;overflow=hidden;points=[[0,0.5],[1,0.5]];portConstraint=eastwest;rotatable=0;whiteSpace=wrap;html=1;" parent="K8rYbUxxIG4jiyy7o4ug-58" vertex="1">
          <mxGeometry y="60" width="140" height="30" as="geometry" />
        </mxCell>
        <mxCell id="K8rYbUxxIG4jiyy7o4ug-62" value="Unite : string" style="text;strokeColor=none;fillColor=none;align=left;verticalAlign=middle;spacingLeft=4;spacingRight=4;overflow=hidden;points=[[0,0.5],[1,0.5]];portConstraint=eastwest;rotatable=0;whiteSpace=wrap;html=1;" parent="K8rYbUxxIG4jiyy7o4ug-58" vertex="1">
          <mxGeometry y="90" width="140" height="30" as="geometry" />
        </mxCell>
        <mxCell id="K8rYbUxxIG4jiyy7o4ug-65" value="" style="endArrow=classic;html=1;rounded=0;entryX=0.5;entryY=1.044;entryDx=0;entryDy=0;entryPerimeter=0;exitX=0.993;exitY=0.339;exitDx=0;exitDy=0;exitPerimeter=0;" parent="WIyWlLk6GJQsqaUBKTNV-1" source="K8rYbUxxIG4jiyy7o4ug-64" target="K8rYbUxxIG4jiyy7o4ug-62" edge="1">
          <mxGeometry width="50" height="50" relative="1" as="geometry">
            <mxPoint x="673" y="915" as="sourcePoint" />
            <mxPoint x="960" y="910" as="targetPoint" />
            <Array as="points">
              <mxPoint x="820" y="1010" />
              <mxPoint x="820" y="1060" />
              <mxPoint x="1120" y="1060" />
              <mxPoint x="1560" y="1060" />
            </Array>
          </mxGeometry>
        </mxCell>
        <mxCell id="K8rYbUxxIG4jiyy7o4ug-68" value="Tache" style="swimlane;fontStyle=0;childLayout=stackLayout;horizontal=1;startSize=30;horizontalStack=0;resizeParent=1;resizeParentMax=0;resizeLast=0;collapsible=1;marginBottom=0;whiteSpace=wrap;html=1;" parent="WIyWlLk6GJQsqaUBKTNV-1" vertex="1">
          <mxGeometry x="350" y="792" width="140" height="90" as="geometry" />
        </mxCell>
        <mxCell id="K8rYbUxxIG4jiyy7o4ug-69" value="Description : String" style="text;strokeColor=none;fillColor=none;align=left;verticalAlign=middle;spacingLeft=4;spacingRight=4;overflow=hidden;points=[[0,0.5],[1,0.5]];portConstraint=eastwest;rotatable=0;whiteSpace=wrap;html=1;" parent="K8rYbUxxIG4jiyy7o4ug-68" vertex="1">
          <mxGeometry y="30" width="140" height="30" as="geometry" />
        </mxCell>
        <mxCell id="K8rYbUxxIG4jiyy7o4ug-70" value="EstTerminer : bool" style="text;strokeColor=none;fillColor=none;align=left;verticalAlign=middle;spacingLeft=4;spacingRight=4;overflow=hidden;points=[[0,0.5],[1,0.5]];portConstraint=eastwest;rotatable=0;whiteSpace=wrap;html=1;" parent="K8rYbUxxIG4jiyy7o4ug-68" vertex="1">
          <mxGeometry y="60" width="140" height="30" as="geometry" />
        </mxCell>
        <mxCell id="K8rYbUxxIG4jiyy7o4ug-73" value="" style="endArrow=classic;html=1;rounded=0;exitX=0;exitY=0.5;exitDx=0;exitDy=0;entryX=0.996;entryY=0.098;entryDx=0;entryDy=0;entryPerimeter=0;" parent="WIyWlLk6GJQsqaUBKTNV-1" source="K8rYbUxxIG4jiyy7o4ug-66" target="K8rYbUxxIG4jiyy7o4ug-68" edge="1">
          <mxGeometry width="50" height="50" relative="1" as="geometry">
            <mxPoint x="560" y="960" as="sourcePoint" />
            <mxPoint x="610" y="910" as="targetPoint" />
            <Array as="points">
              <mxPoint x="540" y="1045" />
              <mxPoint x="540" y="804" />
            </Array>
          </mxGeometry>
        </mxCell>
        <mxCell id="K8rYbUxxIG4jiyy7o4ug-74" value="Ensemble des tache de l&#39;utilistateur (faire 100pompe d&#39;affilé 100km etc) on pourrait même parler d&#39;objectif" style="text;html=1;align=center;verticalAlign=middle;whiteSpace=wrap;rounded=0;fillColor=#60a917;fontColor=#ffffff;strokeColor=#2D7600;" parent="WIyWlLk6GJQsqaUBKTNV-1" vertex="1">
          <mxGeometry x="240" y="720" width="160" height="70" as="geometry" />
        </mxCell>
        <mxCell id="K8rYbUxxIG4jiyy7o4ug-75" value="Classe gérant tout les données de l&#39;utilisateur" style="text;html=1;align=center;verticalAlign=middle;whiteSpace=wrap;rounded=0;fillColor=#60a917;fontColor=#ffffff;strokeColor=#2D7600;" parent="WIyWlLk6GJQsqaUBKTNV-1" vertex="1">
          <mxGeometry x="605" y="1099" width="160" height="70" as="geometry" />
        </mxCell>
        <mxCell id="K8rYbUxxIG4jiyy7o4ug-76" value="Chaque activité a une statistique qui va permettre d&#39;encrementer les different compteur" style="text;html=1;align=center;verticalAlign=middle;whiteSpace=wrap;rounded=0;fillColor=#60a917;fontColor=#ffffff;strokeColor=#2D7600;" parent="WIyWlLk6GJQsqaUBKTNV-1" vertex="1">
          <mxGeometry x="1570" y="890" width="160" height="70" as="geometry" />
        </mxCell>
        <mxCell id="K8rYbUxxIG4jiyy7o4ug-77" value="Activité est la classe de l&#39;exercice par exemple développer coucher ou Curl sont des activités recuperer par l&#39;api (Nom, CalorieBruler, ImagePath)" style="text;html=1;align=center;verticalAlign=middle;whiteSpace=wrap;rounded=0;fillColor=#60a917;fontColor=#ffffff;strokeColor=#2D7600;" parent="WIyWlLk6GJQsqaUBKTNV-1" vertex="1">
          <mxGeometry x="890" y="870" width="200" height="100" as="geometry" />
        </mxCell>
        <mxCell id="K8rYbUxxIG4jiyy7o4ug-78" value="ElementSuivi" style="swimlane;fontStyle=0;childLayout=stackLayout;horizontal=1;startSize=30;horizontalStack=0;resizeParent=1;resizeParentMax=0;resizeLast=0;collapsible=1;marginBottom=0;whiteSpace=wrap;html=1;" parent="WIyWlLk6GJQsqaUBKTNV-1" vertex="1">
          <mxGeometry x="750" y="180" width="140" height="90" as="geometry" />
        </mxCell>
        <mxCell id="K8rYbUxxIG4jiyy7o4ug-80" value="Id : int" style="text;strokeColor=none;fillColor=none;align=left;verticalAlign=middle;spacingLeft=4;spacingRight=4;overflow=hidden;points=[[0,0.5],[1,0.5]];portConstraint=eastwest;rotatable=0;whiteSpace=wrap;html=1;" parent="K8rYbUxxIG4jiyy7o4ug-78" vertex="1">
          <mxGeometry y="30" width="140" height="30" as="geometry" />
        </mxCell>
        <mxCell id="K8rYbUxxIG4jiyy7o4ug-81" value="Date&amp;nbsp; : date" style="text;strokeColor=none;fillColor=none;align=left;verticalAlign=middle;spacingLeft=4;spacingRight=4;overflow=hidden;points=[[0,0.5],[1,0.5]];portConstraint=eastwest;rotatable=0;whiteSpace=wrap;html=1;" parent="K8rYbUxxIG4jiyy7o4ug-78" vertex="1">
          <mxGeometry y="60" width="140" height="30" as="geometry" />
        </mxCell>
        <mxCell id="K8rYbUxxIG4jiyy7o4ug-84" value="" style="shape=flexArrow;endArrow=classic;html=1;rounded=0;entryX=0.548;entryY=1.049;entryDx=0;entryDy=0;entryPerimeter=0;exitX=0.5;exitY=0;exitDx=0;exitDy=0;" parent="WIyWlLk6GJQsqaUBKTNV-1" edge="1">
          <mxGeometry width="50" height="50" relative="1" as="geometry">
            <mxPoint x="1247" y="780" as="sourcePoint" />
            <mxPoint x="827.72" y="301.47" as="targetPoint" />
            <Array as="points">
              <mxPoint x="1247" y="440" />
              <mxPoint x="827" y="440" />
            </Array>
          </mxGeometry>
        </mxCell>
        <mxCell id="K8rYbUxxIG4jiyy7o4ug-85" value="" style="shape=flexArrow;endArrow=classic;html=1;rounded=0;exitX=0.5;exitY=0;exitDx=0;exitDy=0;" parent="WIyWlLk6GJQsqaUBKTNV-1" source="K8rYbUxxIG4jiyy7o4ug-68" edge="1">
          <mxGeometry width="50" height="50" relative="1" as="geometry">
            <mxPoint x="480" y="440" as="sourcePoint" />
            <mxPoint x="828" y="301" as="targetPoint" />
            <Array as="points">
              <mxPoint x="420" y="440" />
              <mxPoint x="828" y="440" />
            </Array>
          </mxGeometry>
        </mxCell>
        <mxCell id="K8rYbUxxIG4jiyy7o4ug-86" value="" style="shape=flexArrow;endArrow=classic;html=1;rounded=0;exitX=0.5;exitY=0;exitDx=0;exitDy=0;" parent="WIyWlLk6GJQsqaUBKTNV-1" source="K8rYbUxxIG4jiyy7o4ug-45" edge="1">
          <mxGeometry width="50" height="50" relative="1" as="geometry">
            <mxPoint x="858" y="621" as="sourcePoint" />
            <mxPoint x="828" y="301" as="targetPoint" />
            <Array as="points">
              <mxPoint x="960" y="600" />
              <mxPoint x="828" y="600" />
              <mxPoint x="828" y="441" />
            </Array>
          </mxGeometry>
        </mxCell>
        <mxCell id="0P53CiuFxA8xap55-LlZ-0" value="Système de notification Window&amp;nbsp;&lt;br&gt;ou ics" style="rounded=1;whiteSpace=wrap;html=1;" parent="WIyWlLk6GJQsqaUBKTNV-1" vertex="1">
          <mxGeometry x="354" y="1169" width="120" height="60" as="geometry" />
        </mxCell>
        <mxCell id="0P53CiuFxA8xap55-LlZ-1" value="" style="endArrow=classic;html=1;rounded=0;exitX=0.457;exitY=0.9;exitDx=0;exitDy=0;exitPerimeter=0;entryX=0.5;entryY=0;entryDx=0;entryDy=0;" parent="WIyWlLk6GJQsqaUBKTNV-1" source="K8rYbUxxIG4jiyy7o4ug-70" target="0P53CiuFxA8xap55-LlZ-0" edge="1">
          <mxGeometry width="50" height="50" relative="1" as="geometry">
            <mxPoint x="800" y="950" as="sourcePoint" />
            <mxPoint x="850" y="900" as="targetPoint" />
          </mxGeometry>
        </mxCell>
        <mxCell id="0P53CiuFxA8xap55-LlZ-2" value="Agenda" style="swimlane;fontStyle=0;childLayout=stackLayout;horizontal=1;startSize=30;horizontalStack=0;resizeParent=1;resizeParentMax=0;resizeLast=0;collapsible=1;marginBottom=0;whiteSpace=wrap;html=1;" parent="WIyWlLk6GJQsqaUBKTNV-1" vertex="1">
          <mxGeometry x="1180" y="780" width="140" height="150" as="geometry" />
        </mxCell>
        <mxCell id="0P53CiuFxA8xap55-LlZ-5" value="HeureDebut&amp;nbsp;: Time" style="text;strokeColor=none;fillColor=none;align=left;verticalAlign=middle;spacingLeft=4;spacingRight=4;overflow=hidden;points=[[0,0.5],[1,0.5]];portConstraint=eastwest;rotatable=0;whiteSpace=wrap;html=1;" parent="0P53CiuFxA8xap55-LlZ-2" vertex="1">
          <mxGeometry y="30" width="140" height="30" as="geometry" />
        </mxCell>
        <mxCell id="0P53CiuFxA8xap55-LlZ-6" value="HeureFin : Time" style="text;strokeColor=none;fillColor=none;align=left;verticalAlign=middle;spacingLeft=4;spacingRight=4;overflow=hidden;points=[[0,0.5],[1,0.5]];portConstraint=eastwest;rotatable=0;whiteSpace=wrap;html=1;" parent="0P53CiuFxA8xap55-LlZ-2" vertex="1">
          <mxGeometry y="60" width="140" height="30" as="geometry" />
        </mxCell>
        <mxCell id="0P53CiuFxA8xap55-LlZ-7" value="Duree&amp;nbsp;: date" style="text;strokeColor=none;fillColor=none;align=left;verticalAlign=middle;spacingLeft=4;spacingRight=4;overflow=hidden;points=[[0,0.5],[1,0.5]];portConstraint=eastwest;rotatable=0;whiteSpace=wrap;html=1;" parent="0P53CiuFxA8xap55-LlZ-2" vertex="1">
          <mxGeometry y="90" width="140" height="30" as="geometry" />
        </mxCell>
        <mxCell id="0P53CiuFxA8xap55-LlZ-8" value="Activite&amp;nbsp;&amp;nbsp;: Activité" style="text;strokeColor=none;fillColor=none;align=left;verticalAlign=middle;spacingLeft=4;spacingRight=4;overflow=hidden;points=[[0,0.5],[1,0.5]];portConstraint=eastwest;rotatable=0;whiteSpace=wrap;html=1;" parent="0P53CiuFxA8xap55-LlZ-2" vertex="1">
          <mxGeometry y="120" width="140" height="30" as="geometry" />
        </mxCell>
        <mxCell id="0P53CiuFxA8xap55-LlZ-10" value="" style="endArrow=classic;html=1;rounded=0;exitX=1;exitY=0.5;exitDx=0;exitDy=0;entryX=0.496;entryY=1.01;entryDx=0;entryDy=0;entryPerimeter=0;" parent="WIyWlLk6GJQsqaUBKTNV-1" source="0P53CiuFxA8xap55-LlZ-9" target="0P53CiuFxA8xap55-LlZ-8" edge="1">
          <mxGeometry width="50" height="50" relative="1" as="geometry">
            <mxPoint x="1110" y="980" as="sourcePoint" />
            <mxPoint x="1160" y="930" as="targetPoint" />
            <Array as="points">
              <mxPoint x="860" y="985" />
              <mxPoint x="860" y="1000" />
              <mxPoint x="1250" y="1000" />
            </Array>
          </mxGeometry>
        </mxCell>
        <mxCell id="0P53CiuFxA8xap55-LlZ-11" value="" style="endArrow=classic;html=1;rounded=0;exitX=0.5;exitY=1;exitDx=0;exitDy=0;entryX=1;entryY=0.25;entryDx=0;entryDy=0;" parent="WIyWlLk6GJQsqaUBKTNV-1" edge="1">
          <mxGeometry width="50" height="50" relative="1" as="geometry">
            <mxPoint x="1720" y="750" as="sourcePoint" />
            <mxPoint x="1630" y="820" as="targetPoint" />
          </mxGeometry>
        </mxCell>
        <mxCell id="0P53CiuFxA8xap55-LlZ-12" value="R.NET" style="rounded=1;whiteSpace=wrap;html=1;" parent="WIyWlLk6GJQsqaUBKTNV-1" vertex="1">
          <mxGeometry x="1720" y="710" width="120" height="60" as="geometry" />
        </mxCell>
        <mxCell id="0P53CiuFxA8xap55-LlZ-13" value="Pour généré des graphiques en R sur du C#" style="text;html=1;align=center;verticalAlign=middle;whiteSpace=wrap;rounded=0;fillColor=#d80073;fontColor=#ffffff;strokeColor=#A50040;" parent="WIyWlLk6GJQsqaUBKTNV-1" vertex="1">
          <mxGeometry x="1850" y="705" width="160" height="70" as="geometry" />
        </mxCell>
        <mxCell id="0P53CiuFxA8xap55-LlZ-14" value="Chaque événement de l&#39;agenda aura se format pour le stockage en json" style="text;html=1;align=center;verticalAlign=middle;whiteSpace=wrap;rounded=0;fillColor=#60a917;fontColor=#ffffff;strokeColor=#2D7600;" parent="WIyWlLk6GJQsqaUBKTNV-1" vertex="1">
          <mxGeometry x="1260" y="960" width="160" height="70" as="geometry" />
        </mxCell>
        <mxCell id="0P53CiuFxA8xap55-LlZ-15" value="" style="shape=flexArrow;endArrow=classic;html=1;rounded=0;entryX=0.548;entryY=1.049;entryDx=0;entryDy=0;entryPerimeter=0;exitX=0.5;exitY=0;exitDx=0;exitDy=0;" parent="WIyWlLk6GJQsqaUBKTNV-1" source="K8rYbUxxIG4jiyy7o4ug-58" edge="1">
          <mxGeometry width="50" height="50" relative="1" as="geometry">
            <mxPoint x="1245" y="780" as="sourcePoint" />
            <mxPoint x="825.72" y="301.47" as="targetPoint" />
            <Array as="points">
              <mxPoint x="1560" y="440" />
              <mxPoint x="1245" y="440" />
              <mxPoint x="825" y="440" />
            </Array>
          </mxGeometry>
        </mxCell>
        <mxCell id="0P53CiuFxA8xap55-LlZ-16" value="" style="endArrow=classic;html=1;rounded=0;exitX=0;exitY=0.5;exitDx=0;exitDy=0;entryX=0.998;entryY=0.111;entryDx=0;entryDy=0;entryPerimeter=0;" parent="WIyWlLk6GJQsqaUBKTNV-1" source="0P53CiuFxA8xap55-LlZ-8" target="K8rYbUxxIG4jiyy7o4ug-45" edge="1">
          <mxGeometry width="50" height="50" relative="1" as="geometry">
            <mxPoint x="1140" y="900" as="sourcePoint" />
            <mxPoint x="1190" y="850" as="targetPoint" />
            <Array as="points">
              <mxPoint x="1130" y="915" />
              <mxPoint x="1130" y="763" />
            </Array>
          </mxGeometry>
        </mxCell>
        <mxCell id="UJ8hW6r6jQu2j_Ut7Npw-5" value="" style="rounded=0;whiteSpace=wrap;html=1;" parent="WIyWlLk6GJQsqaUBKTNV-1" vertex="1">
          <mxGeometry x="190" y="1430" width="1850" height="1160" as="geometry" />
        </mxCell>
        <mxCell id="UJ8hW6r6jQu2j_Ut7Npw-6" value="&lt;p style=&quot;margin:0px;margin-top:4px;text-align:center;&quot;&gt;&lt;i&gt;&amp;lt;&amp;lt;IExportService&amp;gt;&amp;gt;&lt;/i&gt;&lt;br&gt;&lt;b&gt;Interface&lt;/b&gt;&lt;/p&gt;&lt;hr size=&quot;1&quot; style=&quot;border-style:solid;&quot;&gt;&lt;p style=&quot;margin:0px;margin-left:4px;&quot;&gt;&lt;br&gt;&lt;/p&gt;&lt;hr size=&quot;1&quot; style=&quot;border-style:solid;&quot;&gt;&lt;p style=&quot;margin:0px;margin-left:4px;&quot;&gt;&amp;nbsp;void ExportJson&amp;lt;T&amp;gt;(IEnumerable&amp;lt;T&amp;gt; data, string filePath);&lt;/p&gt;&lt;p style=&quot;margin:0px;margin-left:4px;&quot;&gt;&amp;nbsp;void ExportXml&amp;lt;T&amp;gt;(IEnumerable&amp;lt;T&amp;gt; data, string filePath);&lt;/p&gt;&lt;p style=&quot;margin:0px;margin-left:4px;&quot;&gt;&amp;nbsp;void ExportCsv&amp;lt;T&amp;gt;(IEnumerable&amp;lt;T&amp;gt; data, string filePath);&lt;/p&gt;&lt;p style=&quot;margin:0px;margin-left:4px;&quot;&gt;&amp;nbsp;void ExportTxt&amp;lt;T&amp;gt;(IEnumerable&amp;lt;T&amp;gt; data, string filePath);&lt;/p&gt;&lt;p style=&quot;margin:0px;margin-left:4px;&quot;&gt;&lt;br&gt;&lt;/p&gt;" style="verticalAlign=top;align=left;overflow=fill;html=1;whiteSpace=wrap;" parent="WIyWlLk6GJQsqaUBKTNV-1" vertex="1">
          <mxGeometry x="955" y="1560" width="420" height="150" as="geometry" />
        </mxCell>
        <mxCell id="UJ8hW6r6jQu2j_Ut7Npw-7" value="ExportService" style="swimlane;fontStyle=0;childLayout=stackLayout;horizontal=1;startSize=20;horizontalStack=0;resizeParent=1;resizeParentMax=0;resizeLast=0;collapsible=1;marginBottom=0;whiteSpace=wrap;html=1;" parent="WIyWlLk6GJQsqaUBKTNV-1" vertex="1">
          <mxGeometry x="1096" y="1870" width="140" height="50" as="geometry" />
        </mxCell>
        <mxCell id="UJ8hW6r6jQu2j_Ut7Npw-11" value="" style="endArrow=classic;html=1;rounded=0;entryX=0.5;entryY=1;entryDx=0;entryDy=0;exitX=0.5;exitY=0;exitDx=0;exitDy=0;" parent="WIyWlLk6GJQsqaUBKTNV-1" source="UJ8hW6r6jQu2j_Ut7Npw-7" target="UJ8hW6r6jQu2j_Ut7Npw-6" edge="1">
          <mxGeometry width="50" height="50" relative="1" as="geometry">
            <mxPoint x="1290" y="1850" as="sourcePoint" />
            <mxPoint x="1340" y="1800" as="targetPoint" />
          </mxGeometry>
        </mxCell>
        <mxCell id="UJ8hW6r6jQu2j_Ut7Npw-13" value="" style="shape=flexArrow;endArrow=classic;html=1;rounded=0;exitX=1;exitY=1;exitDx=0;exitDy=0;" parent="WIyWlLk6GJQsqaUBKTNV-1" source="UJ8hW6r6jQu2j_Ut7Npw-7" target="UJ8hW6r6jQu2j_Ut7Npw-14" edge="1">
          <mxGeometry width="50" height="50" relative="1" as="geometry">
            <mxPoint x="1220" y="1920" as="sourcePoint" />
            <mxPoint x="1483" y="2090" as="targetPoint" />
          </mxGeometry>
        </mxCell>
        <mxCell id="UJ8hW6r6jQu2j_Ut7Npw-14" value="JSON" style="ellipse;whiteSpace=wrap;html=1;" parent="WIyWlLk6GJQsqaUBKTNV-1" vertex="1">
          <mxGeometry x="1270" y="2010" width="120" height="80" as="geometry" />
        </mxCell>
        <mxCell id="UJ8hW6r6jQu2j_Ut7Npw-15" value="CSV" style="ellipse;whiteSpace=wrap;html=1;" parent="WIyWlLk6GJQsqaUBKTNV-1" vertex="1">
          <mxGeometry x="1158" y="2070" width="120" height="80" as="geometry" />
        </mxCell>
        <mxCell id="UJ8hW6r6jQu2j_Ut7Npw-16" value="TXT" style="ellipse;whiteSpace=wrap;html=1;" parent="WIyWlLk6GJQsqaUBKTNV-1" vertex="1">
          <mxGeometry x="1022" y="2070" width="118" height="80" as="geometry" />
        </mxCell>
        <mxCell id="UJ8hW6r6jQu2j_Ut7Npw-17" value="XML" style="ellipse;whiteSpace=wrap;html=1;" parent="WIyWlLk6GJQsqaUBKTNV-1" vertex="1">
          <mxGeometry x="920" y="2000" width="120" height="80" as="geometry" />
        </mxCell>
        <mxCell id="UJ8hW6r6jQu2j_Ut7Npw-18" value="" style="shape=flexArrow;endArrow=classic;html=1;rounded=0;entryX=0.5;entryY=0;entryDx=0;entryDy=0;" parent="WIyWlLk6GJQsqaUBKTNV-1" target="UJ8hW6r6jQu2j_Ut7Npw-15" edge="1">
          <mxGeometry width="50" height="50" relative="1" as="geometry">
            <mxPoint x="1190" y="1920" as="sourcePoint" />
            <mxPoint x="1268" y="2045" as="targetPoint" />
          </mxGeometry>
        </mxCell>
        <mxCell id="UJ8hW6r6jQu2j_Ut7Npw-19" value="" style="shape=flexArrow;endArrow=classic;html=1;rounded=0;entryX=0.687;entryY=0.04;entryDx=0;entryDy=0;entryPerimeter=0;exitX=0.25;exitY=1;exitDx=0;exitDy=0;" parent="WIyWlLk6GJQsqaUBKTNV-1" source="UJ8hW6r6jQu2j_Ut7Npw-7" target="UJ8hW6r6jQu2j_Ut7Npw-16" edge="1">
          <mxGeometry width="50" height="50" relative="1" as="geometry">
            <mxPoint x="1170" y="1920" as="sourcePoint" />
            <mxPoint x="1176" y="2100" as="targetPoint" />
          </mxGeometry>
        </mxCell>
        <mxCell id="UJ8hW6r6jQu2j_Ut7Npw-20" value="" style="shape=flexArrow;endArrow=classic;html=1;rounded=0;entryX=1;entryY=0;entryDx=0;entryDy=0;exitX=0;exitY=1;exitDx=0;exitDy=0;" parent="WIyWlLk6GJQsqaUBKTNV-1" source="UJ8hW6r6jQu2j_Ut7Npw-7" target="UJ8hW6r6jQu2j_Ut7Npw-17" edge="1">
          <mxGeometry width="50" height="50" relative="1" as="geometry">
            <mxPoint x="1170" y="1920" as="sourcePoint" />
            <mxPoint x="1062" y="2093" as="targetPoint" />
          </mxGeometry>
        </mxCell>
        <mxCell id="UJ8hW6r6jQu2j_Ut7Npw-26" value="JsonService" style="swimlane;fontStyle=1;align=center;verticalAlign=top;childLayout=stackLayout;horizontal=1;startSize=26;horizontalStack=0;resizeParent=1;resizeParentMax=0;resizeLast=0;collapsible=1;marginBottom=0;whiteSpace=wrap;html=1;" parent="WIyWlLk6GJQsqaUBKTNV-1" vertex="1">
          <mxGeometry x="1560" y="2020" width="420" height="232" as="geometry" />
        </mxCell>
        <mxCell id="UJ8hW6r6jQu2j_Ut7Npw-27" value="BaseDirectory" style="text;strokeColor=none;fillColor=none;align=left;verticalAlign=top;spacingLeft=4;spacingRight=4;overflow=hidden;rotatable=0;points=[[0,0.5],[1,0.5]];portConstraint=eastwest;whiteSpace=wrap;html=1;" parent="UJ8hW6r6jQu2j_Ut7Npw-26" vertex="1">
          <mxGeometry y="26" width="420" height="26" as="geometry" />
        </mxCell>
        <mxCell id="UJ8hW6r6jQu2j_Ut7Npw-30" value="UserFIlePath" style="text;strokeColor=none;fillColor=none;align=left;verticalAlign=top;spacingLeft=4;spacingRight=4;overflow=hidden;rotatable=0;points=[[0,0.5],[1,0.5]];portConstraint=eastwest;whiteSpace=wrap;html=1;" parent="UJ8hW6r6jQu2j_Ut7Npw-26" vertex="1">
          <mxGeometry y="52" width="420" height="26" as="geometry" />
        </mxCell>
        <mxCell id="UJ8hW6r6jQu2j_Ut7Npw-31" value="TacheFilePath" style="text;strokeColor=none;fillColor=none;align=left;verticalAlign=top;spacingLeft=4;spacingRight=4;overflow=hidden;rotatable=0;points=[[0,0.5],[1,0.5]];portConstraint=eastwest;whiteSpace=wrap;html=1;" parent="UJ8hW6r6jQu2j_Ut7Npw-26" vertex="1">
          <mxGeometry y="78" width="420" height="26" as="geometry" />
        </mxCell>
        <mxCell id="UJ8hW6r6jQu2j_Ut7Npw-28" value="" style="line;strokeWidth=1;fillColor=none;align=left;verticalAlign=middle;spacingTop=-1;spacingLeft=3;spacingRight=3;rotatable=0;labelPosition=right;points=[];portConstraint=eastwest;strokeColor=inherit;" parent="UJ8hW6r6jQu2j_Ut7Npw-26" vertex="1">
          <mxGeometry y="104" width="420" height="8" as="geometry" />
        </mxCell>
        <mxCell id="UJ8hW6r6jQu2j_Ut7Npw-25" value="public static void SauvegarderUtilisateur(Utilisateur utilisateur)" style="text;strokeColor=none;fillColor=none;align=left;verticalAlign=middle;spacingLeft=4;spacingRight=4;overflow=hidden;points=[[0,0.5],[1,0.5]];portConstraint=eastwest;rotatable=0;whiteSpace=wrap;html=1;" parent="UJ8hW6r6jQu2j_Ut7Npw-26" vertex="1">
          <mxGeometry y="112" width="420" height="30" as="geometry" />
        </mxCell>
        <mxCell id="UJ8hW6r6jQu2j_Ut7Npw-22" value="public static Utilisateur? ChargerUtilisateur()" style="text;strokeColor=none;fillColor=none;align=left;verticalAlign=middle;spacingLeft=4;spacingRight=4;overflow=hidden;points=[[0,0.5],[1,0.5]];portConstraint=eastwest;rotatable=0;whiteSpace=wrap;html=1;" parent="UJ8hW6r6jQu2j_Ut7Npw-26" vertex="1">
          <mxGeometry y="142" width="420" height="30" as="geometry" />
        </mxCell>
        <mxCell id="UJ8hW6r6jQu2j_Ut7Npw-23" value="public static void SauvegarderTaches(List&amp;lt;Tache&amp;gt; taches)" style="text;strokeColor=none;fillColor=none;align=left;verticalAlign=middle;spacingLeft=4;spacingRight=4;overflow=hidden;points=[[0,0.5],[1,0.5]];portConstraint=eastwest;rotatable=0;whiteSpace=wrap;html=1;" parent="UJ8hW6r6jQu2j_Ut7Npw-26" vertex="1">
          <mxGeometry y="172" width="420" height="30" as="geometry" />
        </mxCell>
        <mxCell id="UJ8hW6r6jQu2j_Ut7Npw-24" value="public static List&amp;lt;Tache&amp;gt; ChargerTaches()" style="text;strokeColor=none;fillColor=none;align=left;verticalAlign=middle;spacingLeft=4;spacingRight=4;overflow=hidden;points=[[0,0.5],[1,0.5]];portConstraint=eastwest;rotatable=0;whiteSpace=wrap;html=1;" parent="UJ8hW6r6jQu2j_Ut7Npw-26" vertex="1">
          <mxGeometry y="202" width="420" height="30" as="geometry" />
        </mxCell>
        <mxCell id="UJ8hW6r6jQu2j_Ut7Npw-33" value="" style="endArrow=block;startArrow=block;endFill=1;startFill=1;html=1;rounded=0;entryX=-0.009;entryY=0.062;entryDx=0;entryDy=0;entryPerimeter=0;exitX=0.963;exitY=0.286;exitDx=0;exitDy=0;exitPerimeter=0;" parent="WIyWlLk6GJQsqaUBKTNV-1" source="UJ8hW6r6jQu2j_Ut7Npw-14" target="UJ8hW6r6jQu2j_Ut7Npw-26" edge="1">
          <mxGeometry width="160" relative="1" as="geometry">
            <mxPoint x="1370" y="1940" as="sourcePoint" />
            <mxPoint x="1530" y="1940" as="targetPoint" />
          </mxGeometry>
        </mxCell>
        <mxCell id="UJ8hW6r6jQu2j_Ut7Npw-34" value="Les imports se font au moyen de JsonService, il ne fonctionne qu&#39;avec des Json" style="text;html=1;align=center;verticalAlign=middle;whiteSpace=wrap;rounded=0;fillColor=#60a917;fontColor=#ffffff;strokeColor=#2D7600;" parent="WIyWlLk6GJQsqaUBKTNV-1" vertex="1">
          <mxGeometry x="1620" y="1900" width="275" height="100" as="geometry" />
        </mxCell>
        <mxCell id="UJ8hW6r6jQu2j_Ut7Npw-35" value="" style="rounded=0;whiteSpace=wrap;html=1;" parent="WIyWlLk6GJQsqaUBKTNV-1" vertex="1">
          <mxGeometry x="2230" y="130" width="1850" height="1160" as="geometry" />
        </mxCell>
        <mxCell id="UJ8hW6r6jQu2j_Ut7Npw-36" value="LOGIN" style="html=1;whiteSpace=wrap;" parent="WIyWlLk6GJQsqaUBKTNV-1" vertex="1">
          <mxGeometry x="2780" y="550" width="110" height="50" as="geometry" />
        </mxCell>
        <mxCell id="UJ8hW6r6jQu2j_Ut7Npw-37" value="UserService" style="swimlane;fontStyle=1;align=center;verticalAlign=top;childLayout=stackLayout;horizontal=1;startSize=26;horizontalStack=0;resizeParent=1;resizeParentMax=0;resizeLast=0;collapsible=1;marginBottom=0;whiteSpace=wrap;html=1;" parent="WIyWlLk6GJQsqaUBKTNV-1" vertex="1">
          <mxGeometry x="3060" y="514" width="440" height="346" as="geometry" />
        </mxCell>
        <mxCell id="UJ8hW6r6jQu2j_Ut7Npw-38" value="UtilisateurActif : Utilisateur" style="text;strokeColor=none;fillColor=none;align=left;verticalAlign=top;spacingLeft=4;spacingRight=4;overflow=hidden;rotatable=0;points=[[0,0.5],[1,0.5]];portConstraint=eastwest;whiteSpace=wrap;html=1;" parent="UJ8hW6r6jQu2j_Ut7Npw-37" vertex="1">
          <mxGeometry y="26" width="440" height="26" as="geometry" />
        </mxCell>
        <mxCell id="UJ8hW6r6jQu2j_Ut7Npw-39" value="" style="line;strokeWidth=1;fillColor=none;align=left;verticalAlign=middle;spacingTop=-1;spacingLeft=3;spacingRight=3;rotatable=0;labelPosition=right;points=[];portConstraint=eastwest;strokeColor=inherit;" parent="UJ8hW6r6jQu2j_Ut7Npw-37" vertex="1">
          <mxGeometry y="52" width="440" height="8" as="geometry" />
        </mxCell>
        <mxCell id="UJ8hW6r6jQu2j_Ut7Npw-40" value="public bool VerifierPseudo(string pseudo)" style="text;strokeColor=none;fillColor=none;align=left;verticalAlign=top;spacingLeft=4;spacingRight=4;overflow=hidden;rotatable=0;points=[[0,0.5],[1,0.5]];portConstraint=eastwest;whiteSpace=wrap;html=1;" parent="UJ8hW6r6jQu2j_Ut7Npw-37" vertex="1">
          <mxGeometry y="60" width="440" height="26" as="geometry" />
        </mxCell>
        <mxCell id="UJ8hW6r6jQu2j_Ut7Npw-41" value="public bool VerifierNom(string nom)" style="text;strokeColor=none;fillColor=none;align=left;verticalAlign=top;spacingLeft=4;spacingRight=4;overflow=hidden;rotatable=0;points=[[0,0.5],[1,0.5]];portConstraint=eastwest;whiteSpace=wrap;html=1;" parent="UJ8hW6r6jQu2j_Ut7Npw-37" vertex="1">
          <mxGeometry y="86" width="440" height="26" as="geometry" />
        </mxCell>
        <mxCell id="UJ8hW6r6jQu2j_Ut7Npw-43" value="public bool VerifierPrenom(string prenom)" style="text;strokeColor=none;fillColor=none;align=left;verticalAlign=top;spacingLeft=4;spacingRight=4;overflow=hidden;rotatable=0;points=[[0,0.5],[1,0.5]];portConstraint=eastwest;whiteSpace=wrap;html=1;" parent="UJ8hW6r6jQu2j_Ut7Npw-37" vertex="1">
          <mxGeometry y="112" width="440" height="26" as="geometry" />
        </mxCell>
        <mxCell id="UJ8hW6r6jQu2j_Ut7Npw-42" value="public bool VerifierTaille(int taille)" style="text;strokeColor=none;fillColor=none;align=left;verticalAlign=top;spacingLeft=4;spacingRight=4;overflow=hidden;rotatable=0;points=[[0,0.5],[1,0.5]];portConstraint=eastwest;whiteSpace=wrap;html=1;" parent="UJ8hW6r6jQu2j_Ut7Npw-37" vertex="1">
          <mxGeometry y="138" width="440" height="26" as="geometry" />
        </mxCell>
        <mxCell id="UJ8hW6r6jQu2j_Ut7Npw-44" value="public bool VerifierPoids(double poids)" style="text;strokeColor=none;fillColor=none;align=left;verticalAlign=top;spacingLeft=4;spacingRight=4;overflow=hidden;rotatable=0;points=[[0,0.5],[1,0.5]];portConstraint=eastwest;whiteSpace=wrap;html=1;" parent="UJ8hW6r6jQu2j_Ut7Npw-37" vertex="1">
          <mxGeometry y="164" width="440" height="26" as="geometry" />
        </mxCell>
        <mxCell id="UJ8hW6r6jQu2j_Ut7Npw-45" value="public bool VerifierAge(int age)" style="text;strokeColor=none;fillColor=none;align=left;verticalAlign=top;spacingLeft=4;spacingRight=4;overflow=hidden;rotatable=0;points=[[0,0.5],[1,0.5]];portConstraint=eastwest;whiteSpace=wrap;html=1;" parent="UJ8hW6r6jQu2j_Ut7Npw-37" vertex="1">
          <mxGeometry y="190" width="440" height="26" as="geometry" />
        </mxCell>
        <mxCell id="UJ8hW6r6jQu2j_Ut7Npw-46" value="public bool VerifierObjectifPoids(double objectif)" style="text;strokeColor=none;fillColor=none;align=left;verticalAlign=top;spacingLeft=4;spacingRight=4;overflow=hidden;rotatable=0;points=[[0,0.5],[1,0.5]];portConstraint=eastwest;whiteSpace=wrap;html=1;" parent="UJ8hW6r6jQu2j_Ut7Npw-37" vertex="1">
          <mxGeometry y="216" width="440" height="26" as="geometry" />
        </mxCell>
        <mxCell id="UJ8hW6r6jQu2j_Ut7Npw-47" value="public bool VerifierDateObjectif(DateTime date)" style="text;strokeColor=none;fillColor=none;align=left;verticalAlign=top;spacingLeft=4;spacingRight=4;overflow=hidden;rotatable=0;points=[[0,0.5],[1,0.5]];portConstraint=eastwest;whiteSpace=wrap;html=1;" parent="UJ8hW6r6jQu2j_Ut7Npw-37" vertex="1">
          <mxGeometry y="242" width="440" height="26" as="geometry" />
        </mxCell>
        <mxCell id="UJ8hW6r6jQu2j_Ut7Npw-48" value="public bool VerifierMotDePasse(string mdp, string confirmation)" style="text;strokeColor=none;fillColor=none;align=left;verticalAlign=top;spacingLeft=4;spacingRight=4;overflow=hidden;rotatable=0;points=[[0,0.5],[1,0.5]];portConstraint=eastwest;whiteSpace=wrap;html=1;" parent="UJ8hW6r6jQu2j_Ut7Npw-37" vertex="1">
          <mxGeometry y="268" width="440" height="26" as="geometry" />
        </mxCell>
        <mxCell id="UJ8hW6r6jQu2j_Ut7Npw-49" value="public bool VerifierEmail(string email)" style="text;strokeColor=none;fillColor=none;align=left;verticalAlign=top;spacingLeft=4;spacingRight=4;overflow=hidden;rotatable=0;points=[[0,0.5],[1,0.5]];portConstraint=eastwest;whiteSpace=wrap;html=1;" parent="UJ8hW6r6jQu2j_Ut7Npw-37" vertex="1">
          <mxGeometry y="294" width="440" height="26" as="geometry" />
        </mxCell>
        <mxCell id="UJ8hW6r6jQu2j_Ut7Npw-50" value="&lt;div&gt;public Utilisateur? CreerUtilisateur(....&lt;span style=&quot;background-color: initial;&quot;&gt;)&lt;/span&gt;&lt;/div&gt;" style="text;strokeColor=none;fillColor=none;align=left;verticalAlign=top;spacingLeft=4;spacingRight=4;overflow=hidden;rotatable=0;points=[[0,0.5],[1,0.5]];portConstraint=eastwest;whiteSpace=wrap;html=1;" parent="UJ8hW6r6jQu2j_Ut7Npw-37" vertex="1">
          <mxGeometry y="320" width="440" height="26" as="geometry" />
        </mxCell>
        <mxCell id="UJ8hW6r6jQu2j_Ut7Npw-51" value="" style="endArrow=open;startArrow=circlePlus;endFill=0;startFill=0;endSize=8;html=1;rounded=0;entryX=0;entryY=0.5;entryDx=0;entryDy=0;exitX=1;exitY=0.5;exitDx=0;exitDy=0;" parent="WIyWlLk6GJQsqaUBKTNV-1" source="UJ8hW6r6jQu2j_Ut7Npw-25" target="UJ8hW6r6jQu2j_Ut7Npw-50" edge="1">
          <mxGeometry width="160" relative="1" as="geometry">
            <mxPoint x="2770" y="990" as="sourcePoint" />
            <mxPoint x="2930" y="990" as="targetPoint" />
          </mxGeometry>
        </mxCell>
      </root>
    </mxGraphModel>
  </diagram>
</mxfile>
